# xmcd
#
# Track frame offsets:
#	150
#	9423
#	18246
#	30084
#	41150
#	54514
#	65180
#	77855
#	89278
#	100293
#	110818
#	121508
#	134502
#	146659
#	158830
#	171585
#	181287
#	192645
#	203729
#	213484
#	225733
#	236055
#	248520
#	258810
#
# Disc length: 3554 seconds
#
# Revision: 1
# Processed by: cddbd v1.5.2PL0 Copyright (c) Steve Scherf et al.
# Submitted via: audiograbber 1.83.01
#
DISCID=4f0de018
DTITLE=Various Artist - Doo-Wop Meets Northern Soul
DYEAR=2006
DGENRE=R&B
TTITLE0=The 5 Royales - I'm Standing In The Shadows
TTITLE1=Sonny Edwards - Hand Full Of Tears
TTITLE2=Vito and The Salutations - I'd Best Be Going
TTITLE3=The Monorays - Step Right Up
TTITLE4=Richard Blandon and The Dubs - I'm Downtown
TTITLE5=The Blendtones - Come On Home
TTITLE6=The Caronators - Long Hot Summer
TTITLE7=The Kacties - Smile (Baby)
TTITLE8=The Versatiles - Just Words
TTITLE9=The Persians - Gee What A Girl
TTITLE10=The Travelers - My Baby Doesn't Love Me Anymore
TTITLE11=The Sevilles - Charlena
TTITLE12=The Willows - Such A Night
TTITLE13=The Darrells - So Tenderly
TTITLE14=The Pheasants - Out Of The Mist
TTITLE15=The Camelots - Pocahontas
TTITLE16=The Untouchables - Poor Boy Needs A Preacher
TTITLE17=Pookie Hudson - Miracles
TTITLE18=The Crests - Tears Will Fall
TTITLE19=The G-Clefs - To The Winner Goes The Prize
TTITLE20=The Daylighters - Magic Touch
TTITLE21=The Gibralters - I Won't Be Your Fool Anymore
TTITLE22=The Elgins - Ritha Mae
TTITLE23=The Starfires - Love Will Break Your Heart
EXTD=
EXTT0=
EXTT1=
EXTT2=
EXTT3=
EXTT4=
EXTT5=
EXTT6=
EXTT7=
EXTT8=
EXTT9=
EXTT10=
EXTT11=
EXTT12=
EXTT13=
EXTT14=
EXTT15=
EXTT16=
EXTT17=
EXTT18=
EXTT19=
EXTT20=
EXTT21=
EXTT22=
EXTT23=
PLAYORDER=
